<svg xmlns="http://www.w3.org/2000/svg" viewBox="0 0 556.41 230.33"><g id="Layer_2" data-name="Layer 2"><g id="Layer_1-2" data-name="Layer 1"><path d="M190.08,15.58a7,7,0,0,1,2.21-2.87c1.17-1,2.56-2.13,4.18-3.3a28.27,28.27,0,0,1,4.85-2.87,10,10,0,0,1,3.74-1.1c2.65,0,3.67,1,3.09,3.09q-9.71,27.32-19,53.1t-19.83,53.54Q157.48,146,144,167t-28.2,33.93q-14.77,13-30.63,18.73a95.47,95.47,0,0,1-32.61,5.72q-23.35,0-35.47-11.67A38.5,38.5,0,0,1,5,184.79a39.09,39.09,0,0,1,4.19-16.74,41.57,41.57,0,0,1,13-15.43c.88-.59,1.69-.29,2.42.89s.81,2.05.22,2.64a28.63,28.63,0,0,0-7,18.95q0,18.51,10.58,30t32.16,11.46A80.77,80.77,0,0,0,89,211.67q13-4.84,24.67-17.18t22.48-33.05q10.78-20.72,22.25-52,4.85-14.55,9.48-26.88T177.3,57q-16.76,26.44-35,43.18t-32.39,18.07a8.77,8.77,0,0,1-8.37-5.29q-2.66-5.28-2.65-14.54A95.29,95.29,0,0,1,100.63,81a154.13,154.13,0,0,1,5.06-19.61,159.44,159.44,0,0,1,8.38-20.5,207.05,207.05,0,0,1,11.23-20q-4.85,3.54-10.13,7.72a102.22,102.22,0,0,0-8.82,7.71c-.88.59-1.69.37-2.42-.66a2.34,2.34,0,0,1-.22-2.87,158.74,158.74,0,0,1,16.75-14.1A151.63,151.63,0,0,1,141.17,5.44c2.93,0,4.11,1.32,3.52,4A134.89,134.89,0,0,0,132.57,29a196.56,196.56,0,0,0-9.47,21.59A152.51,152.51,0,0,0,116.93,72a93.85,93.85,0,0,0-2.2,19q0,12.34,8.37,12.34,7.05,0,17-9.48A176.35,176.35,0,0,0,159.9,70.88,237.09,237.09,0,0,0,178,42.24,187.61,187.61,0,0,0,190.08,15.58Z" style="fill:#fff;stroke:#fff;stroke-miterlimit:10;stroke-width:10px"/><path d="M223.33,111.64A101.27,101.27,0,0,1,211,116.05a40.49,40.49,0,0,1-11,1.76q-5.29,0-2.65-5.73a287.46,287.46,0,0,0,12.78-40.32,294.13,294.13,0,0,0,7-39q1.34-15.42-4.84-15.42T196,27.47a3,3,0,0,1-3.52-.44c-.88-.88-.88-1.9,0-3.08q10.13-10.14,17.84-14.54T224.66,5c3.52,0,6,1.32,7.27,4a22.64,22.64,0,0,1,2,10.13,133.43,133.43,0,0,1-1.76,19.83q-1.77,11.46-4.63,24t-6.39,24.68c-2.45,8.4-4.63,15.57-6.61,21.81A77.44,77.44,0,0,0,239.2,98a115.7,115.7,0,0,0,22-19.39,98.07,98.07,0,0,0,15.65-24,62.59,62.59,0,0,0,5.94-26.22q0-11.46-7.49-11.46-6.16,0-11,7.05a1.41,1.41,0,0,1-2.21-.44,2.93,2.93,0,0,1-.44-2.65,42.23,42.23,0,0,1,9.92-10.79Q278,5,284.15,5a9.87,9.87,0,0,1,8.15,4.41q3.3,4.41,3.3,13.22a64.15,64.15,0,0,1-5.5,25.56,105.07,105.07,0,0,1-15.21,24.67A136.66,136.66,0,0,1,252,94.9,132.82,132.82,0,0,1,223.33,111.64Z" style="fill:#fff;stroke:#fff;stroke-miterlimit:10;stroke-width:10px"/><path d="M363.58,24.39a16.67,16.67,0,0,1-4.84,11.46,45.36,45.36,0,0,1-13.22,9.47A140.14,140.14,0,0,1,326.35,53q-10.8,3.54-22.7,6.61-.43,4.86-.66,9.7c-.15,3.23-.22,6.76-.22,10.57q0,11,4.85,18.51a15.36,15.36,0,0,0,13.66,7.49,32.8,32.8,0,0,0,16.53-4.4,50.55,50.55,0,0,0,13.88-11.9c1.17-.59,2.05-.44,2.64.44a2.89,2.89,0,0,1,0,3.08,70.84,70.84,0,0,1-18.73,17.41A42.71,42.71,0,0,1,312,117.81q-11.47,0-18.73-7.49t-7.27-22a89.85,89.85,0,0,1,4.84-28,117.81,117.81,0,0,1,12.78-27.1,79,79,0,0,1,18.29-20.27Q332.29,5,343.75,5A18.83,18.83,0,0,1,357.86,11,18.93,18.93,0,0,1,363.58,24.39ZM334.5,16.46q-10.14,0-18.07,8.81T305,53Q326.13,50,336,44T346,30.56a16.09,16.09,0,0,0-3.09-10.14A10,10,0,0,0,334.5,16.46Z" style="fill:#fff;stroke:#fff;stroke-miterlimit:10;stroke-width:10px"/><path d="M398.9,17.34a105.69,105.69,0,0,1-1.32,15.42q-1.32,8.82-3.52,17.63,8.81-21.15,19.38-33.27T436.36,5a15.54,15.54,0,0,1,8.81,2.64,8.5,8.5,0,0,1,4,7.49q0,3.54-2.64,9a30.08,30.08,0,0,1-5.29,8.15q-2.65,1.77-2.65-1.32,0-7.48-10.13-7.49-15.44,0-27.76,23.13t-23.36,64.12c-.59,2.94-2.58,4.85-5.95,5.73a35.08,35.08,0,0,1-8.59,1.32q-4.86,0-2.21-4.85,4-9.25,7.5-20t6.83-21.81q3.3-11,5.51-21.59t3.52-19.39q1.75-13.23-4.41-13.22-3.52,0-8.15,4a57.89,57.89,0,0,0-8.59,9.26,2.64,2.64,0,0,1-3.09-.22,2.13,2.13,0,0,1-.44-2.87A104,104,0,0,1,374,11.83Q382.16,5,389.21,5,398.9,5,398.9,17.34Z" style="fill:#fff;stroke:#fff;stroke-miterlimit:10;stroke-width:10px"/><path d="M547.78,89.61a2.19,2.19,0,0,1,2.64,0,2.23,2.23,0,0,1,.88,2.64,107,107,0,0,1-16.52,17.85q-9,7.71-17,7.71-13.66,0-13.66-17.63,0-15,5.29-33.27A217.19,217.19,0,0,1,524,30.12,12.36,12.36,0,0,0,525.74,24q0-4.85-4.4-4.85-16.31,0-35.92,22.48t-36.35,70.5c-.59,1.77-2.21,3.16-4.85,4.19a20.64,20.64,0,0,1-7.49,1.54c-3.24,0-4.41-1.32-3.53-4q7.49-18.94,15.65-42.75T463.17,24q1.75-8.37-3.09-8.37-4.41,0-8.81,4.4A81.83,81.83,0,0,0,442,31.44c-.6.59-1.26.44-2-.44a2.67,2.67,0,0,1-.66-2.64,86.17,86.17,0,0,1,13.22-15.43Q461,5,470.66,5q11,0,7.49,15-1.77,9.7-4.85,20.49t-6.61,21.38a139.48,139.48,0,0,1,14.55-22.48,120.32,120.32,0,0,1,17.4-18.07A91.26,91.26,0,0,1,516.71,9.41q9-4.41,17-4.41c3.52,0,6.23.88,8.15,2.64a8.16,8.16,0,0,1,2.86,6.17,27.15,27.15,0,0,1-2.64,11.46,228,228,0,0,0-15.65,35Q520,78.6,520,94q0,11,7.05,11Q536.33,105,547.78,89.61Z" style="fill:#fff;stroke:#fff;stroke-miterlimit:10;stroke-width:10px"/></g></g></svg>