<svg xmlns="http://www.w3.org/2000/svg" viewBox="0 0 556.45 230.38"><defs><style>.cls-1{stroke:#000;stroke-miterlimit:10;stroke-width:10px;}</style></defs><g id="Layer_2" data-name="Layer 2"><g id="Layer_1-2" data-name="Layer 1"><g id="Layer_2-2" data-name="Layer 2"><g id="Layer_1-2-2" data-name="Layer 1-2"><path class="cls-1" d="M190.09,15.58a7,7,0,0,1,2.21-2.87c1.17-1,2.56-2.13,4.18-3.3a29.19,29.19,0,0,1,4.85-2.87,10,10,0,0,1,3.74-1.1c2.65,0,3.67,1,3.09,3.09q-9.71,27.33-19,53.1t-19.83,53.54Q157.5,146,144,167t-28.2,33.93q-14.78,13-30.63,18.73a95.41,95.41,0,0,1-32.61,5.72q-23.35,0-35.47-11.67A38.51,38.51,0,0,1,5,184.79,39,39,0,0,1,9.2,168.05a41.65,41.65,0,0,1,13-15.43c.88-.59,1.69-.29,2.42.89s.81,2.05.22,2.64a28.63,28.63,0,0,0-7,18.95q0,18.51,10.58,30t32.16,11.46A80.62,80.62,0,0,0,89,211.67q13-4.83,24.67-17.18t22.48-33.05q10.78-20.72,22.25-52,4.84-14.55,9.48-26.88T177.31,57q-16.76,26.44-35,43.18t-32.39,18.07a8.77,8.77,0,0,1-8.37-5.29q-2.65-5.28-2.65-14.54A95.27,95.27,0,0,1,100.64,81a155.88,155.88,0,0,1,5.06-19.61,160.84,160.84,0,0,1,8.38-20.5,207.46,207.46,0,0,1,11.23-20q-4.84,3.54-10.13,7.72a104.21,104.21,0,0,0-8.82,7.71c-.88.59-1.69.37-2.42-.66a2.35,2.35,0,0,1-.22-2.87,158.76,158.76,0,0,1,16.75-14.1A151.58,151.58,0,0,1,141.18,5.44c2.93,0,4.11,1.32,3.52,4A135.83,135.83,0,0,0,132.58,29a195.33,195.33,0,0,0-9.47,21.59A152.13,152.13,0,0,0,116.94,72a93.43,93.43,0,0,0-2.2,19q0,12.35,8.37,12.34,7,0,17-9.48a175.52,175.52,0,0,0,19.8-23A236.07,236.07,0,0,0,178,42.24,187.4,187.4,0,0,0,190.09,15.58Z"/><path class="cls-1" d="M223.34,111.64A100,100,0,0,1,211,116.05a40.26,40.26,0,0,1-11,1.76q-5.3,0-2.65-5.73a287.4,287.4,0,0,0,12.78-40.32,292.89,292.89,0,0,0,7-39q1.34-15.42-4.84-15.42T196,27.47a3,3,0,0,1-3.52-.44c-.88-.88-.88-1.9,0-3.08q10.13-10.14,17.84-14.54T224.67,5c3.52,0,6,1.32,7.27,4a22.67,22.67,0,0,1,2,10.13A133,133,0,0,1,232.18,39q-1.77,11.46-4.63,24t-6.39,24.68c-2.45,8.4-4.63,15.57-6.61,21.81A77.41,77.41,0,0,0,239.21,98a115.41,115.41,0,0,0,22-19.39,97.92,97.92,0,0,0,15.65-24,62.53,62.53,0,0,0,5.94-26.22q0-11.46-7.49-11.46-6.17,0-11,7.05a1.41,1.41,0,0,1-2-.11,1.46,1.46,0,0,1-.22-.33,2.92,2.92,0,0,1-.44-2.65,42.3,42.3,0,0,1,9.92-10.79Q278,5,284.16,5a9.89,9.89,0,0,1,8.15,4.41q3.3,4.41,3.3,13.22a64.12,64.12,0,0,1-5.5,25.56A104.94,104.94,0,0,1,274.9,72.86,136.82,136.82,0,0,1,252,94.9,132.75,132.75,0,0,1,223.34,111.64Z"/><path class="cls-1" d="M363.59,24.39a16.66,16.66,0,0,1-4.84,11.46,45.24,45.24,0,0,1-13.22,9.47A139.13,139.13,0,0,1,326.36,53q-10.8,3.54-22.7,6.61c-.29,3.24-.51,6.48-.66,9.7s-.22,6.76-.22,10.57q0,11,4.85,18.51a15.36,15.36,0,0,0,13.66,7.49,32.74,32.74,0,0,0,16.53-4.4,50.45,50.45,0,0,0,13.88-11.9c1.17-.59,2.05-.44,2.64.44a2.9,2.9,0,0,1,0,3.08,70.91,70.91,0,0,1-18.73,17.41,42.65,42.65,0,0,1-23.6,7.3q-11.47,0-18.73-7.49t-7.27-22a89.88,89.88,0,0,1,4.84-28,117.83,117.83,0,0,1,12.78-27.1A79.08,79.08,0,0,1,321.92,13Q332.3,5,343.76,5a18.85,18.85,0,0,1,14.11,6A18.92,18.92,0,0,1,363.59,24.39Zm-29.08-7.93q-10.14,0-18.07,8.81T305,53q21.14-3,31-9t10-13.44a16,16,0,0,0-3.09-10.14A10,10,0,0,0,334.51,16.46Z"/><path class="cls-1" d="M398.91,17.34a104.75,104.75,0,0,1-1.32,15.42q-1.32,8.82-3.52,17.63,8.81-21.15,19.38-33.27T436.37,5a15.51,15.51,0,0,1,8.81,2.64,8.51,8.51,0,0,1,4,7.49q0,3.54-2.64,9a30.06,30.06,0,0,1-5.29,8.15Q438.6,34.05,438.6,31q0-7.47-10.13-7.49-15.44,0-27.76,23.13t-23.36,64.12c-.59,2.94-2.58,4.85-6,5.73a34.7,34.7,0,0,1-8.59,1.32q-4.86,0-2.21-4.85,4-9.24,7.5-20t6.83-21.81q3.3-11,5.51-21.59T384,30.13q1.76-13.23-4.41-13.22-3.53,0-8.15,4a58.43,58.43,0,0,0-8.59,9.26,2.62,2.62,0,0,1-3.09-.22,2.12,2.12,0,0,1-.44-2.87A104.13,104.13,0,0,1,374,11.83Q382.17,5,389.22,5,398.91,5,398.91,17.34Z"/><path class="cls-1" d="M547.79,89.61a2.19,2.19,0,0,1,2.64,0,2.24,2.24,0,0,1,.88,2.64,106.7,106.7,0,0,1-16.52,17.85q-9,7.71-17,7.71-13.66,0-13.66-17.63,0-15,5.29-33.27A217.4,217.4,0,0,1,524,30.12,12.43,12.43,0,0,0,525.75,24q0-4.84-4.4-4.85-16.31,0-35.92,22.48t-36.35,70.5c-.59,1.77-2.21,3.16-4.85,4.19a20.5,20.5,0,0,1-7.49,1.54c-3.24,0-4.41-1.32-3.53-4q7.49-18.93,15.65-42.75T463.18,24q1.76-8.37-3.09-8.37-4.41,0-8.81,4.4A81.81,81.81,0,0,0,442,31.44c-.6.59-1.26.44-2-.44a2.65,2.65,0,0,1-.66-2.64,86.49,86.49,0,0,1,13.22-15.43Q461,5,470.67,5q11,0,7.49,15-1.77,9.7-4.85,20.49T466.7,61.87a139.75,139.75,0,0,1,14.55-22.48,120.4,120.4,0,0,1,17.4-18.07A91.55,91.55,0,0,1,516.72,9.41a38.77,38.77,0,0,1,17-4.41c3.52,0,6.23.88,8.15,2.64a8.16,8.16,0,0,1,2.86,6.17,27.05,27.05,0,0,1-2.64,11.46,228.89,228.89,0,0,0-15.65,35Q520,78.6,520,94q0,11,7,11Q536.35,105,547.79,89.61Z"/></g></g></g></g></svg>